<svg width="162" height="47" viewBox="0 0 162 47" fill="none" xmlns="http://www.w3.org/2000/svg">
<path d="M43.4566 34.6922C47.41 34.6922 50.332 32.3202 50.332 29.0543C50.332 27.5761 49.7133 26.2354 48.6132 25.3416C47.7538 24.6884 46.2068 23.8978 44.316 23.2102C43.1128 22.7633 42.6315 22.3508 42.6315 21.8695C42.6315 21.3882 43.0785 21.0445 43.6972 21.0445C44.1098 21.0445 44.6942 21.182 45.1755 21.3882L45.6224 21.5601L46.5162 21.9726C46.9975 22.1445 47.41 22.2477 47.7538 22.282C48.8538 22.3508 49.9195 21.2163 49.9195 19.9788C49.9195 17.9849 47.3756 16.4723 44.0754 16.4723C40.2939 16.4723 37.5093 18.8443 37.5093 22.0758C37.5093 23.554 37.9906 24.7572 38.9188 25.5823C39.7095 26.2354 41.3252 26.9917 43.766 27.8168C44.8317 28.1949 45.2442 28.5387 45.2442 29.0543C45.2442 29.7075 44.7629 30.0857 43.9035 30.0857C43.3535 30.0857 42.6659 29.9138 42.1503 29.6388L41.3252 29.2262L40.8783 28.9856C40.2939 28.6762 39.7782 28.5387 39.297 28.5387C38.1281 28.5387 37.0281 29.6731 37.0281 30.8763C37.0281 32.8015 40.1908 34.6922 43.4566 34.6922ZM56.3824 34.486C57.9638 34.486 58.9607 33.3859 58.9607 31.6326V21.8695H60.1983C62.0203 21.8695 63.0172 21.0445 63.0172 19.4631C63.0172 17.813 62.0891 17.0223 60.1983 17.0223H58.9607V13.8252C58.9607 12.072 57.9638 10.9719 56.3824 10.9719C54.7667 10.9719 53.8041 12.072 53.8041 13.8252V17.0223H53.426C51.5696 17.0223 50.6414 17.813 50.6414 19.4631C50.6414 21.0788 51.5696 21.8695 53.426 21.8695H53.8041V31.6326C53.8041 33.3859 54.8011 34.486 56.3824 34.486ZM66.4893 34.5203C68.0363 34.5203 69.0333 33.4203 69.0333 31.667V24.9978C69.0333 24.4822 69.1364 23.9321 69.3427 23.4852C69.5833 22.9008 69.9614 22.5914 70.9584 22.2477C74.3961 20.9069 73.5023 21.2507 73.7086 21.182C74.6367 20.7694 75.0149 20.1163 75.0149 19.0506C75.0149 17.7099 73.8117 16.541 72.471 16.541C71.2678 16.541 70.1677 17.1255 68.8614 18.5005C68.3113 17.1255 67.6925 16.6442 66.4893 16.6442C64.8736 16.6442 63.8767 17.7099 63.8767 19.4975V31.667C63.8767 33.4203 64.8736 34.5203 66.4893 34.5203ZM78.4182 15.441C80.2059 15.441 81.4434 14.2034 81.4434 12.4502C81.4434 10.6969 80.1715 9.42495 78.4526 9.42495C76.6994 9.42495 75.4274 10.6969 75.4274 12.4158C75.4274 14.169 76.6994 15.441 78.4182 15.441ZM78.4526 34.4516C79.9996 34.4516 80.9965 33.3515 80.9965 31.5983V19.5319C80.9965 17.7786 79.9996 16.6785 78.4526 16.6785C76.8369 16.6785 75.84 17.7442 75.84 19.5319V31.5983C75.84 33.3859 76.8025 34.4516 78.4526 34.4516ZM95.8098 34.486C97.2193 34.486 98.3194 33.4203 98.3194 32.0452C98.3194 31.1514 98.1131 30.7732 96.6005 28.9168L96.2911 28.5387L92.9565 24.3103L95.3629 21.8351C97.013 20.0819 96.5661 20.5632 96.738 20.3569C97.2193 19.8069 97.3224 19.5319 97.3224 19.0162C97.3224 17.7099 96.2567 16.5067 95.0535 16.5067C94.091 16.5067 93.3691 16.9192 92.0971 18.2943L91.4096 19.0506L88.1437 22.4883V12.1751C88.1437 10.4219 87.1468 9.32182 85.5654 9.32182C84.6029 9.32182 83.7434 9.8031 83.2965 10.5594C83.0559 11.0063 82.9871 11.3157 82.9871 12.1751V31.6326C82.9871 33.4203 83.9497 34.486 85.5654 34.486C87.1812 34.486 88.1437 33.3859 88.1437 31.6326V26.2698L91.4783 30.6013L92.0971 31.4264C93.9191 33.8672 94.641 34.486 95.8098 34.486ZM106.851 34.6578C108.811 34.6578 110.702 34.1766 112.386 33.2484C113.761 32.4577 114.449 31.5639 114.449 30.5669C114.449 29.3637 113.486 28.2981 112.352 28.2981C112.008 28.2981 111.492 28.4356 111.011 28.6762L110.633 28.8481L110.289 29.02L109.911 29.2262L109.464 29.4325C108.502 29.8106 107.952 29.9482 107.092 29.9482C105.201 29.9482 103.964 29.02 103.517 27.3011H112.627C114.174 27.3011 114.758 26.6823 114.758 25.101C114.758 23.5196 114.311 21.9039 113.521 20.5288C111.974 17.9161 109.533 16.5067 106.473 16.5067C101.351 16.5067 97.8447 20.3569 97.8447 25.9948C97.8447 31.117 101.557 34.6578 106.851 34.6578ZM15.1854 1.10846L29.7335 6.40354C29.7916 6.42471 29.848 6.44858 29.9026 6.47495C30.033 6.51588 30.1632 6.55995 30.293 6.6072C34.9284 8.29435 37.3218 13.4107 35.6387 18.0349C33.9556 22.6591 28.8335 25.0401 24.1981 23.3529L9.09041 17.8542C8.16333 17.5167 7.68466 16.4935 8.02128 15.5686C8.35789 14.6438 9.38232 14.1676 10.3094 14.505L18.7021 17.5601C18.3233 16.3196 18.2122 14.9901 18.4108 13.661L1.17685 7.38824C0.249766 7.05081 -0.228902 6.02753 0.107712 5.10269C0.444327 4.17785 1.46875 3.70166 2.39584 4.03909L19.6296 10.312C20.3318 9.16619 21.2714 8.21905 22.3589 7.51221L13.9664 4.4576C13.0393 4.12017 12.5606 3.0969 12.8972 2.17206C13.2338 1.24722 14.2583 0.771031 15.1854 1.10846ZM106.542 20.7351C108.261 20.7351 109.327 21.732 109.636 23.7259H103.242C103.758 21.7664 104.892 20.7351 106.542 20.7351ZM22.2523 13.1595C21.2381 15.9459 22.6748 19.0268 25.4612 20.041C28.2475 21.0551 31.3285 19.6185 32.3426 16.8321C33.3568 14.0457 31.9201 10.9648 29.1338 9.95062C26.3474 8.93646 23.2664 10.3731 22.2523 13.1595Z" fill="white"/>
<path d="M141.173 27.6H135.973L134.981 30H132.325L137.317 18.8H139.877L144.885 30H142.165L141.173 27.6ZM140.357 25.632L138.581 21.344L136.805 25.632H140.357ZM150.895 18.8C151.887 18.8 152.745 18.9653 153.471 19.296C154.207 19.6267 154.772 20.096 155.167 20.704C155.561 21.312 155.759 22.032 155.759 22.864C155.759 23.6853 155.561 24.4053 155.167 25.024C154.772 25.632 154.207 26.1013 153.471 26.432C152.745 26.752 151.887 26.912 150.895 26.912H148.639V30H146.047V18.8H150.895ZM150.751 24.8C151.529 24.8 152.121 24.6347 152.527 24.304C152.932 23.9627 153.135 23.4827 153.135 22.864C153.135 22.2347 152.932 21.7547 152.527 21.424C152.121 21.0827 151.529 20.912 150.751 20.912H148.639V24.8H150.751ZM157.609 18.8H160.201V30H157.609V18.8Z" fill="#CCFF00"/>
<rect x="123" width="1" height="47" fill="#C4C4C4"/>
</svg>
